<?xml version="1.0" encoding="UTF-8"?>
<svg width="45px" height="45px" viewBox="0 0 45 45" version="1.1" xmlns="http://www.w3.org/2000/svg" xmlns:xlink="http://www.w3.org/1999/xlink">
    <!-- Generator: Sketch 52.6 (67491) - http://www.bohemiancoding.com/sketch -->
    <title>logo</title>
    <desc>Created with Sketch.</desc>
    <defs>
        <linearGradient x1="0%" y1="0%" x2="100%" y2="100%" id="linearGradient-1">
            <stop stop-color="#C60E09" offset="0%"></stop>
            <stop stop-color="#3B0896" offset="100%"></stop>
        </linearGradient>
        <path d="M17.729,29.409 C19.0070064,29.409 20.1049954,29.7239968 21.023,30.354 C21.9410046,30.9840031 22.6339977,31.8299947 23.102,32.892 C23.5700023,33.9540053 23.804,35.1239936 23.804,36.402 C23.804,37.6800064 23.5700023,38.8499947 23.102,39.912 C22.6339977,40.9740053 21.9410046,41.8199969 21.023,42.45 C20.1049954,43.0800031 19.0070064,43.395 17.729,43.395 C16.3069929,43.395 15.0200058,43.0080039 13.868,42.234 L13.814,43.125 L10.682,43.125 L10.682,22.875 L14.03,22.875 L14.03,30.624 C15.1280055,29.8139959 16.3609932,29.409 17.729,29.409 Z M17.243,40.641 C18.2330049,40.641 19.0024973,40.2540039 19.5515,39.48 C20.1005027,38.7059961 20.375,37.6800064 20.375,36.402 C20.375,35.1239936 20.1005027,34.0980039 19.5515,33.324 C19.0024973,32.5499961 18.2330049,32.163 17.243,32.163 C16.1089943,32.163 15.2630028,32.5409962 14.705,33.297 C14.1469972,34.0530038 13.868,35.0879934 13.868,36.402 C13.868,37.7160066 14.1469972,38.7509962 14.705,39.507 C15.2630028,40.2630038 16.1089943,40.641 17.243,40.641 Z M24.668,29.625 L27.935,29.625 L30.257,39.048 L32.795,29.895 L35.603,29.895 L38.114,39.048 L40.463,29.625 L43.73,29.625 L39.788,43.125 L36.98,43.125 L34.199,34.323 L31.418,43.125 L28.61,43.125 L24.668,29.625 Z" id="path-2"></path>
    </defs>
    <g id="Page-1" stroke="none" stroke-width="1" fill="none" fill-rule="evenodd">
        <g id="Desktop-HD" transform="translate(-32.000000, -4.000000)">
            <g id="logo" transform="translate(32.000000, 4.000000)">
                <rect id="Rectangle" fill="#FFFFFF" x="0" y="0" width="44.25" height="44.25"></rect>
                <g id="bw">
                    <use fill="#730A5D" xlink:href="#path-2"></use>
                    <use fill="url(#linearGradient-1)" xlink:href="#path-2"></use>
                </g>
            </g>
        </g>
    </g>
</svg>